<mxfile host="Electron" agent="Mozilla/5.0 (Windows NT 10.0; Win64; x64) AppleWebKit/537.36 (KHTML, like Gecko) draw.io/24.7.8 Chrome/128.0.6613.36 Electron/32.0.1 Safari/537.36" version="24.7.8">
  <diagram name="Strona-1" id="pTqMG-TVlPyLX2ufuvJe">
    <mxGraphModel dx="615" dy="2349" grid="1" gridSize="10" guides="1" tooltips="1" connect="1" arrows="1" fold="1" page="1" pageScale="1" pageWidth="827" pageHeight="1169" math="0" shadow="0">
      <root>
        <mxCell id="0" />
        <mxCell id="1" parent="0" />
        <mxCell id="eLhWNtyFMJjZ_b6H2tY1-18" value="&lt;font style=&quot;font-size: 20px;&quot;&gt;Projektanci:&lt;/font&gt;&lt;div style=&quot;font-size: 20px;&quot;&gt;&lt;font style=&quot;font-size: 20px;&quot;&gt;• Natalia Nosowicz&lt;br&gt;•&amp;nbsp;&lt;/font&gt;&lt;span style=&quot;background-color: initial;&quot;&gt;Nikola Maciejewska&lt;/span&gt;&lt;/div&gt;" style="shape=note;whiteSpace=wrap;html=1;backgroundOutline=1;darkOpacity=0.05;fillColor=#fff2cc;strokeColor=#d6b656;align=left;spacingLeft=15;spacingBottom=0;" parent="1" vertex="1">
          <mxGeometry x="827" y="-1169" width="240" height="180" as="geometry" />
        </mxCell>
        <mxCell id="eLhWNtyFMJjZ_b6H2tY1-19" value="Założenia:&lt;br&gt;&lt;div&gt;• moduł odpowiada za rejestrację i logowanie użytkowników&lt;/div&gt;&lt;div&gt;• zapewnia funkcję&amp;nbsp;szyfrowania haseł i danych wrażliwych&lt;br&gt;&lt;/div&gt;&lt;div&gt;• zarządza sesją użytkownika zapewniając trwałość uwierzytelnienia i autoryzację w dostępie do zasobów systemu&lt;/div&gt;&lt;br&gt;Moduł obejmuje implementację części interfejsu graficznego związanej z logowaniem i rejestracją użytkowników w systemie z uwzględnieniem zdefiniowania odpowiednich punktów końcowych i wywołań w kontrolerze." style="shape=note;size=20;whiteSpace=wrap;html=1;fillColor=#fff2cc;strokeColor=#d6b656;align=left;spacingLeft=5;" parent="1" vertex="1">
          <mxGeometry x="1170" y="-1169" width="484" height="209" as="geometry" />
        </mxCell>
        <mxCell id="NQS23r_oVsK8m9UzS7bl-2" value="Bezpieczeństwo i uwierzytelnianie" style="html=1;dropTarget=0;whiteSpace=wrap;" parent="1" vertex="1">
          <mxGeometry x="1150" y="-710" width="180" height="90" as="geometry" />
        </mxCell>
        <mxCell id="NQS23r_oVsK8m9UzS7bl-3" value="" style="shape=module;jettyWidth=8;jettyHeight=4;" parent="NQS23r_oVsK8m9UzS7bl-2" vertex="1">
          <mxGeometry x="1" width="20" height="20" relative="1" as="geometry">
            <mxPoint x="-27" y="7" as="offset" />
          </mxGeometry>
        </mxCell>
        <mxCell id="NQS23r_oVsK8m9UzS7bl-4" value="Web Controller" style="html=1;dropTarget=0;whiteSpace=wrap;" parent="1" vertex="1">
          <mxGeometry x="1150" y="-900" width="180" height="90" as="geometry" />
        </mxCell>
        <mxCell id="NQS23r_oVsK8m9UzS7bl-5" value="" style="shape=module;jettyWidth=8;jettyHeight=4;" parent="NQS23r_oVsK8m9UzS7bl-4" vertex="1">
          <mxGeometry x="1" width="20" height="20" relative="1" as="geometry">
            <mxPoint x="-27" y="7" as="offset" />
          </mxGeometry>
        </mxCell>
        <mxCell id="NQS23r_oVsK8m9UzS7bl-6" value="zarządzanie sesją użytkownika" style="text;html=1;align=center;verticalAlign=middle;whiteSpace=wrap;rounded=0;" parent="1" vertex="1">
          <mxGeometry x="1260" y="-770" width="60" height="30" as="geometry" />
        </mxCell>
        <mxCell id="NQS23r_oVsK8m9UzS7bl-7" value="autentykacja" style="text;html=1;align=center;verticalAlign=middle;whiteSpace=wrap;rounded=0;" parent="1" vertex="1">
          <mxGeometry x="1110" y="-770" width="60" height="30" as="geometry" />
        </mxCell>
        <mxCell id="NQS23r_oVsK8m9UzS7bl-8" value="" style="rounded=0;orthogonalLoop=1;jettySize=auto;html=1;endArrow=halfCircle;endFill=0;endSize=6;strokeWidth=1;sketch=0;exitX=0.5;exitY=1;exitDx=0;exitDy=0;" parent="1" source="NQS23r_oVsK8m9UzS7bl-4" target="NQS23r_oVsK8m9UzS7bl-10" edge="1">
          <mxGeometry relative="1" as="geometry">
            <mxPoint x="1350" y="-865" as="sourcePoint" />
          </mxGeometry>
        </mxCell>
        <mxCell id="NQS23r_oVsK8m9UzS7bl-9" value="" style="rounded=0;orthogonalLoop=1;jettySize=auto;html=1;endArrow=oval;endFill=0;sketch=0;sourcePerimeterSpacing=0;targetPerimeterSpacing=0;endSize=10;exitX=0.5;exitY=0;exitDx=0;exitDy=0;" parent="1" source="NQS23r_oVsK8m9UzS7bl-2" target="NQS23r_oVsK8m9UzS7bl-10" edge="1">
          <mxGeometry relative="1" as="geometry">
            <mxPoint x="1310" y="-655" as="sourcePoint" />
          </mxGeometry>
        </mxCell>
        <mxCell id="NQS23r_oVsK8m9UzS7bl-10" value="" style="ellipse;whiteSpace=wrap;html=1;align=center;aspect=fixed;fillColor=none;strokeColor=none;resizable=0;perimeter=centerPerimeter;rotatable=0;allowArrows=0;points=[];outlineConnect=1;" parent="1" vertex="1">
          <mxGeometry x="1235" y="-760" width="10" height="10" as="geometry" />
        </mxCell>
        <mxCell id="NQS23r_oVsK8m9UzS7bl-11" value="" style="rounded=0;orthogonalLoop=1;jettySize=auto;html=1;endArrow=halfCircle;endFill=0;endSize=6;strokeWidth=1;sketch=0;exitX=0.25;exitY=1;exitDx=0;exitDy=0;" parent="1" source="NQS23r_oVsK8m9UzS7bl-4" target="NQS23r_oVsK8m9UzS7bl-13" edge="1">
          <mxGeometry relative="1" as="geometry">
            <mxPoint x="1350" y="-865" as="sourcePoint" />
          </mxGeometry>
        </mxCell>
        <mxCell id="NQS23r_oVsK8m9UzS7bl-12" value="" style="rounded=0;orthogonalLoop=1;jettySize=auto;html=1;endArrow=oval;endFill=0;sketch=0;sourcePerimeterSpacing=0;targetPerimeterSpacing=0;endSize=10;exitX=0.25;exitY=0;exitDx=0;exitDy=0;" parent="1" source="NQS23r_oVsK8m9UzS7bl-2" target="NQS23r_oVsK8m9UzS7bl-13" edge="1">
          <mxGeometry relative="1" as="geometry">
            <mxPoint x="1310" y="-655" as="sourcePoint" />
          </mxGeometry>
        </mxCell>
        <mxCell id="NQS23r_oVsK8m9UzS7bl-13" value="" style="ellipse;whiteSpace=wrap;html=1;align=center;aspect=fixed;fillColor=none;strokeColor=none;resizable=0;perimeter=centerPerimeter;rotatable=0;allowArrows=0;points=[];outlineConnect=1;" parent="1" vertex="1">
          <mxGeometry x="1190" y="-760" width="10" height="10" as="geometry" />
        </mxCell>
      </root>
    </mxGraphModel>
  </diagram>
</mxfile>
